<?xml version="1.0" encoding="UTF-8"?>
<svg version="1.1" xmlns="http://www.w3.org/2000/svg" width="500" height="500">
<path d="M0 0 C165 0 330 0 500 0 C500 165 500 330 500 500 C335 500 170 500 0 500 C0 335 0 170 0 0 Z " fill="#F9F9F9" transform="translate(0,0)"/>
<path d="M0 0 C2.0625 0.4375 2.0625 0.4375 4 1 C3.67 1.66 3.34 2.32 3 3 C17.19 3 31.38 3 46 3 C46 2.01 46 1.02 46 0 C53.92 0 61.84 0 70 0 C72.28141411 6.79841036 74.56101784 13.59737093 76.8359375 20.39794922 C77.6109013 22.71276348 78.38694013 25.02721811 79.1640625 27.34130859 C80.27885108 30.66150163 81.38980712 33.9829554 82.5 37.3046875 C82.84998047 38.34430634 83.19996094 39.38392517 83.56054688 40.45504761 C83.88087891 41.41589264 84.20121094 42.37673767 84.53125 43.36669922 C84.95760742 44.63910965 84.95760742 44.63910965 85.39257812 45.93722534 C86 48 86 48 86 50 C92.6 50 99.2 50 106 50 C106 51.32 106 52.64 106 54 C83.89 54 61.78 54 39 54 C39 52.68 39 51.36 39 50 C46.59 50 54.18 50 62 50 C60.989375 46.99132812 59.97875 43.98265625 58.9375 40.8828125 C57.96379799 37.97729129 56.99112613 35.07142716 56.01855469 32.16552734 C55.34059662 30.14172827 54.66156341 28.11828904 53.98144531 26.09521484 C53.00565136 23.19201446 52.03369532 20.28755396 51.0625 17.3828125 C50.75626709 16.47443634 50.45003418 15.56606018 50.13452148 14.63015747 C49.85423096 13.78943695 49.57394043 12.94871643 49.28515625 12.08251953 C49.03644775 11.34083527 48.78773926 10.599151 48.53149414 9.83499146 C48 8 48 8 48 6 C32.82 6.33 17.64 6.66 2 7 C0.5975 11.186875 -0.805 15.37375 -2.25 19.6875 C-2.68344727 20.97873779 -3.11689453 22.26997559 -3.56347656 23.6003418 C-5.86724739 30.49546731 -8.08085867 37.41057782 -10.19433594 44.36645508 C-10.77121109 46.25213758 -11.37641493 48.12924478 -12 50 C-3.09 50 5.82 50 15 50 C15 51.32 15 52.64 15 54 C-1.83 54 -18.66 54 -36 54 C-36 52.68 -36 51.36 -36 50 C-29.4 50 -22.8 50 -16 50 C-15.67 47.69 -15.34 45.38 -15 43 C-14.58634232 41.44191418 -14.12876246 39.89445912 -13.6171875 38.36572266 C-13.3402002 37.52860748 -13.06321289 36.69149231 -12.77783203 35.82901001 C-12.47989746 34.94957733 -12.18196289 34.07014465 -11.875 33.1640625 C-11.56804199 32.24410492 -11.26108398 31.32414734 -10.94482422 30.37631226 C-10.29874631 28.44409343 -9.64976866 26.51284203 -8.99804688 24.58251953 C-7.99692848 21.61589815 -7.00558236 18.64614342 -6.015625 15.67578125 C-5.38598503 13.79668446 -4.75579621 11.91777147 -4.125 10.0390625 C-3.67809814 8.7016954 -3.67809814 8.7016954 -3.22216797 7.33731079 C-2.94518066 6.51910858 -2.66819336 5.70090637 -2.3828125 4.85791016 C-2.13934082 4.13511871 -1.89586914 3.41232727 -1.64501953 2.66763306 C-1 1 -1 1 0 0 Z " fill="#080808" transform="translate(282,270)"/>
<path d="M0 0 C8.58 0 17.16 0 26 0 C26.37125 3.3 26.7425 6.6 27.125 10 C28.85210946 23.49948803 32.21206672 39.47699651 43.0625 48.765625 C52.91194353 55.81071308 63.13666416 57.25971811 75 56 C87.53848891 53.54204651 97.52156546 46.20746004 105 36 C107.85599222 31.42933063 110.44967091 26.74578372 113 22 C113.60585937 20.8965625 114.21171875 19.793125 114.8359375 18.65625 C116.23405317 16.10944775 117.62197004 13.55770713 119 11 C119.99 11 120.98 11 122 11 C122 26.51 122 42.02 122 58 C116.40913786 56.88182757 115.84742039 56.1539407 112.4375 51.9375 C110.28741355 49.17430815 110.28741355 49.17430815 108 47 C103.29251396 47 102.51478784 47.83726035 98.9375 50.6875 C85.60641695 60.75273539 72.30454311 62.44735183 56 61 C51.32342519 60.10734853 47.19015303 58.22767629 43 56 C41.70255859 55.33097656 41.70255859 55.33097656 40.37890625 54.6484375 C22.41501558 44.61556253 9.07993687 28.26461082 2 9 C1.34 6.03 0.68 3.06 0 0 Z " fill="#070707" transform="translate(115,270)"/>
<path d="M0 0 C2.26365469 1.40347454 2.26365469 1.40347454 5.2421875 1.171875 C7.63462356 -1.08838227 9.78764484 -3.51063849 11.98828125 -5.95703125 C12.73207031 -6.57449219 13.47585937 -7.19195312 14.2421875 -7.828125 C15.5621875 -7.498125 16.8821875 -7.168125 18.2421875 -6.828125 C18.2421875 7.031875 18.2421875 20.891875 18.2421875 35.171875 C17.2521875 35.171875 16.2621875 35.171875 15.2421875 35.171875 C14.96246094 34.43324219 14.68273437 33.69460937 14.39453125 32.93359375 C8.19266042 17.23947046 0.60609203 6.49125725 -14.7578125 -0.828125 C-25.85775998 -5.57351675 -38.53714482 -4.88045916 -49.7578125 -0.828125 C-58.70717887 3.51433582 -65.1157199 11.16955522 -68.8515625 20.33203125 C-70.08429929 24.19496077 -71.04186923 28.095179 -71.9453125 32.046875 C-72.19607544 33.14310181 -72.19607544 33.14310181 -72.4519043 34.26147461 C-73.74385587 40.30056613 -74.1884006 45.90834408 -74.7578125 52.171875 C-83.3378125 52.171875 -91.9178125 52.171875 -100.7578125 52.171875 C-98.32604929 32.71776932 -86.54600178 16.60449877 -71.7578125 4.171875 C-50.54779406 -12.02936357 -22.7810326 -13.65509966 0 0 Z " fill="#070707" transform="translate(215.7578125,177.828125)"/>
<path d="M0 0 C1.86260986 0.16885376 1.86260986 0.16885376 4 1 C5.20233154 3.26400757 5.20233154 3.26400757 6.19824219 6.29833984 C6.76838043 7.99547623 6.76838043 7.99547623 7.35003662 9.72689819 C7.74499329 10.95913116 8.13994995 12.19136414 8.546875 13.4609375 C8.96583086 14.73070907 9.38611705 16.00004242 9.80767822 17.26895142 C10.68829328 19.93069241 11.55808115 22.59563616 12.41943359 25.26367188 C13.52371226 28.68387537 14.64600202 32.09779584 15.77537155 35.50978661 C16.85118107 38.76232706 17.91820525 42.01772697 18.984375 45.2734375 C19.38742859 46.50162201 19.79048218 47.72980652 20.20574951 48.99520874 C20.57323303 50.13293732 20.94071655 51.27066589 21.31933594 52.44287109 C21.80753815 53.94725235 21.80753815 53.94725235 22.30560303 55.48202515 C23 58 23 58 23 61 C15.08 61 7.16 61 -1 61 C-3.31 54.07 -5.62 47.14 -8 40 C-8.99 42.97 -9.98 45.94 -11 49 C-11.86987011 51.1979535 -12.76238214 53.38722288 -13.6875 55.5625 C-14.12449219 56.59503906 -14.56148438 57.62757813 -15.01171875 58.69140625 C-15.33785156 59.45324219 -15.66398437 60.21507812 -16 61 C-17.32 61 -18.64 61 -20 61 C-18.01050259 53.40162575 -15.74192101 45.94108767 -13.2421875 38.49609375 C-12.8936673 37.45099136 -12.54514709 36.40588898 -12.18606567 35.32911682 C-11.45636311 33.14300651 -10.7252169 30.95737758 -9.99267578 28.7722168 C-8.86791537 25.41636218 -7.74806671 22.05889771 -6.62890625 18.70117188 C-5.91695146 16.57021733 -5.20472188 14.43935457 -4.4921875 12.30859375 C-3.98907547 10.8009269 -3.98907547 10.8009269 -3.47579956 9.26280212 C-3.16522614 8.3374617 -2.85465271 7.41212128 -2.53466797 6.45874023 C-2.12521439 5.23609718 -2.12521439 5.23609718 -1.70748901 3.98875427 C-1 2 -1 2 0 0 Z " fill="#060606" transform="translate(315,169)"/>
<path d="M0 0 C2.375 1.5625 2.375 1.5625 4 4 C3.9375 7.625 3.9375 7.625 3 11 C-0.49124017 13.32749345 -1.89222251 13.50299316 -6 13 C-8.78506308 11.02113939 -9.81084752 9.84067767 -10.5625 6.5 C-10 4 -10 4 -7.8125 1.6875 C-4.75072428 -0.14956543 -3.4804429 -0.713937 0 0 Z " fill="#1F1F1F" transform="translate(320,242)"/>
<path d="M0 0 C6.8359375 -0.1953125 6.8359375 -0.1953125 9 0 C11 2 11 2 11.0625 4.375 C11.041875 5.24125 11.02125 6.1075 11 7 C11.20625 7.721875 11.4125 8.44375 11.625 9.1875 C11.74875 9.785625 11.8725 10.38375 12 11 C10 13 10 13 7.6171875 13.1953125 C6.71226562 13.17210937 5.80734375 13.14890625 4.875 13.125 C2.461875 13.063125 2.461875 13.063125 0 13 C0 8.71 0 4.42 0 0 Z " fill="#4C4C4C" transform="translate(159,242)"/>
<path d="M0 0 C2.375 1.5625 2.375 1.5625 4 4 C3.9375 7.625 3.9375 7.625 3 11 C-0.46923881 13.31282587 -1.92205575 13.42478586 -6 13 C-7.875 11.9375 -7.875 11.9375 -9 10 C-9.4375 6.5 -9.4375 6.5 -9 3 C-6.35893733 -0.03233122 -3.92985113 -0.68772395 0 0 Z " fill="#121212" transform="translate(188,242)"/>
<path d="M0 0 C0.5534764 2.07553648 1 3.84365964 1 6 C1.99 6 2.98 6 4 6 C4 7.65 4 9.3 4 11 C0.61401171 12.04184255 -2.46681687 12.23042499 -6 12 C-6.66 11.34 -7.32 10.68 -8 10 C-7.828125 7.65234375 -7.828125 7.65234375 -7.25 4.9375 C-7.06953125 4.03902344 -6.8890625 3.14054688 -6.703125 2.21484375 C-6.47109375 1.48394531 -6.2390625 0.75304687 -6 0 C-3.50907189 -1.24546405 -2.58919267 -0.7767578 0 0 Z " fill="#343434" transform="translate(268,243)"/>
<path d="M0 0 C0.99 0 1.98 0 3 0 C3.83790789 1.78953185 4.67019396 3.58169695 5.5 5.375 C5.9640625 6.37273437 6.428125 7.37046875 6.90625 8.3984375 C8 11 8 11 8 13 C7.01 13 6.02 13 5 13 C4.67 12.34 4.34 11.68 4 11 C0.97065509 10.34227572 0.97065509 10.34227572 -2 10 C-2.33 10.99 -2.66 11.98 -3 13 C-3.99 12.67 -4.98 12.34 -6 12 C-4.02 8.04 -2.04 4.08 0 0 Z " fill="#131313" transform="translate(234,242)"/>
<path d="M0 0 C0 0.99 0 1.98 0 3 C-2.31 3 -4.62 3 -7 3 C-7 4.65 -7 6.3 -7 8 C-4.50935112 8.68707555 -2.62113708 9 0 9 C-0.33 9.99 -0.66 10.98 -1 12 C-7.34507042 12.35915493 -7.34507042 12.35915493 -9.9375 10.9375 C-11.63335287 7.84506242 -11.43060657 5.44485259 -11 2 C-7.86386149 -2.0142573 -4.61083486 -0.97536891 0 0 Z " fill="#242424" transform="translate(302,243)"/>
<path d="M0 0 C2.31 0 4.62 0 7 0 C7 0.33 7 0.66 7 1 C5.35 1 3.7 1 2 1 C2 2.32 2 3.64 2 5 C3.32 5.33 4.64 5.66 6 6 C4.68 6 3.36 6 2 6 C2 7.32 2 8.64 2 10 C3.65 9.67 5.3 9.34 7 9 C7.33 7.68 7.66 6.36 8 5 C8.99 5.66 9.98 6.32 11 7 C10.125 10.875 10.125 10.875 9 12 C5.99668982 12.14193337 3.00782866 12.04236378 0 12 C0 8.04 0 4.08 0 0 Z " fill="#000000" transform="translate(160,243)"/>
<path d="M0 0 C0.99 0 1.98 0 3 0 C3 3.3 3 6.6 3 10 C4.98 10 6.96 10 9 10 C9 10.99 9 11.98 9 13 C6.03 13 3.06 13 0 13 C0 8.71 0 4.42 0 0 Z " fill="#282828" transform="translate(201,242)"/>
<path d="M0 0 C2.625 0.375 2.625 0.375 5 1 C5.625 3.375 5.625 3.375 6 6 C5.34 6.66 4.68 7.32 4 8 C1.375 7.625 1.375 7.625 -1 7 C-1.625 4.625 -1.625 4.625 -2 2 C-1.34 1.34 -0.68 0.68 0 0 Z " fill="#E5E5E5" transform="translate(315,245)"/>
<path d="M0 0 C2.5 0.125 2.5 0.125 3.5 1.125 C3.6875 3.5625 3.6875 3.5625 3.5 6.125 C2.84 6.785 2.18 7.445 1.5 8.125 C-1.125 7.75 -1.125 7.75 -3.5 7.125 C-3.54254356 5.12545254 -3.54080783 3.12458364 -3.5 1.125 C-2.5 0.125 -2.5 0.125 0 0 Z " fill="#EBEBEB" transform="translate(185.5,244.875)"/>
<path d="M0 0 C0.99 0 1.98 0 3 0 C3.66 1.98 4.32 3.96 5 6 C4.34 6 3.68 6 3 6 C3 6.66 3 7.32 3 8 C0.03 7.505 0.03 7.505 -3 7 C-1.125 1.125 -1.125 1.125 0 0 Z " fill="#232323" transform="translate(234,242)"/>
<path d="M0 0 C0.99 0 1.98 0 3 0 C3 4.29 3 8.58 3 13 C2.01 13 1.02 13 0 13 C0 8.71 0 4.42 0 0 Z " fill="#262626" transform="translate(218,242)"/>
<path d="M0 0 C0.33 0.99 0.66 1.98 1 3 C-0.423125 3.12375 -0.423125 3.12375 -1.875 3.25 C-5.10461791 3.65074923 -5.10461791 3.65074923 -6.375 6.0625 C-6.58125 6.701875 -6.7875 7.34125 -7 8 C-7.66 6.35 -8.32 4.7 -9 3 C-5.92807025 0.26939578 -4.09590633 -0.34132553 0 0 Z " fill="#2B2B2B" transform="translate(188,242)"/>
<path d="M0 0 C0.33 0 0.66 0 1 0 C1.2475 0.969375 1.495 1.93875 1.75 2.9375 C2.1625 3.948125 2.575 4.95875 3 6 C5.03243548 6.96877057 5.03243548 6.96877057 7 7 C7 7.66 7 8.32 7 9 C0.125 8.125 0.125 8.125 -1 7 C-1.125 4 -1.125 4 -1 1 C-0.67 0.67 -0.34 0.34 0 0 Z " fill="#0A0A0A" transform="translate(312,246)"/>
<path d="M0 0 C2 3.75 2 3.75 2 6 C3.65 6.33 5.3 6.66 7 7 C7 7.66 7 8.32 7 9 C2.55063291 9.36075949 2.55063291 9.36075949 0.1875 7.8125 C-1.38243085 5.41628976 -1.29573841 3.80951486 -1 1 C-0.67 0.67 -0.34 0.34 0 0 Z " fill="#0A0A0A" transform="translate(180,246)"/>
<path d="M0 0 C3.3 0.33 6.6 0.66 10 1 C9.67 1.99 9.34 2.98 9 4 C6.69 4 4.38 4 2 4 C1.34 2.68 0.68 1.36 0 0 Z " fill="#151515" transform="translate(292,251)"/>
<path d="M0 0 C1.98 0.99 1.98 0.99 4 2 C3.6875 3.9375 3.6875 3.9375 3 6 C2.01 6.33 1.02 6.66 0 7 C0 4.69 0 2.38 0 0 Z " fill="#121212" transform="translate(167,248)"/>
<path d="M0 0 C2.475 0.495 2.475 0.495 5 1 C5 1.99 5 2.98 5 4 C3.35 4 1.7 4 0 4 C0 2.68 0 1.36 0 0 Z " fill="#ACACAC" transform="translate(162,244)"/>
<path d="M0 0 C1.1446875 0.3403125 1.1446875 0.3403125 2.3125 0.6875 C-1.4375 3.6875 -1.4375 3.6875 -3.6875 3.6875 C-4.3475 5.0075 -5.0075 6.3275 -5.6875 7.6875 C-5.91482116 4.88387237 -6.02831872 3.22563483 -4.5 0.8125 C-2.6875 -0.3125 -2.6875 -0.3125 0 0 Z " fill="#2E2E2E" transform="translate(315.6875,243.3125)"/>
<path d="M0 0 C0.66 1.32 1.32 2.64 2 4 C1.34 4 0.68 4 0 4 C0 4.66 0 5.32 0 6 C-1.32 5.67 -2.64 5.34 -4 5 C-3.67 4.01 -3.34 3.02 -3 2 C-2.01 2 -1.02 2 0 2 C0 1.34 0 0.68 0 0 Z " fill="#858585" transform="translate(237,244)"/>
<path d="M0 0 C1.98 0 3.96 0 6 0 C5.67 0.99 5.34 1.98 5 3 C3.35 3 1.7 3 0 3 C0 2.01 0 1.02 0 0 Z " fill="#D8D8D8" transform="translate(162,250)"/>
</svg>
